# xmcd
#
# Track frame offsets: 
#        182
#        15162
#        27495
#        43580
#        58162
#        80815
#        97520
#        112382
#        126345
#        145382
#        160770
#
# Disc length: 2349 seconds
#
# Revision: 3
# Processed by: cddbd v1.5PL3 Copyright (c) Steve Scherf et al.
# Submitted via: ExactAudioCopy v0.95a4
#
DISCID=91092b0b
DTITLE=Diamond Rio - Diamond Rio
DYEAR=1991
DGENRE=Country
TTITLE0=Meet In The Middle
TTITLE1=This State Of Mind
TTITLE2=They Don't Make Hearts
TTITLE3=Mirror Mirror
TTITLE4=The Ballad Of Conley And Billy
TTITLE5=Nowhere Bound
TTITLE6=It's Gone
TTITLE7=Norma Jean Riley
TTITLE8=Mama Don't Forget To Pray For Me
TTITLE9=Pick Me Up
TTITLE10=Poultry Promenade
EXTD=
EXTT0=
EXTT1=
EXTT2=
EXTT3=
EXTT4=
EXTT5=
EXTT6=
EXTT7=
EXTT8=
EXTT9=
EXTT10=
PLAYORDER=
